<?xml version="1.0" encoding="UTF-8" standalone="no"?>
<!DOCTYPE svg PUBLIC "-//W3C//DTD SVG 1.1//EN" "http://www.w3.org/Graphics/SVG/1.1/DTD/svg11.dtd">
<svg width="100%" height="100%" viewBox="0 0 100 125" version="1.1" xmlns="http://www.w3.org/2000/svg" xmlns:xlink="http://www.w3.org/1999/xlink" xml:space="preserve" xmlns:serif="http://www.serif.com/" style="fill-rule:evenodd;clip-rule:evenodd;stroke-linejoin:round;stroke-miterlimit:2;">
    <g transform="matrix(1,0,0,1,0,-6)">
        <path d="M24.191,69.191L31.869,69.191C32.421,69.191 32.869,68.744 32.869,68.191C32.869,67.638 32.421,67.191 31.869,67.191L24.191,67.191C23.639,67.191 23.191,67.638 23.191,68.191C23.191,68.744 23.639,69.191 24.191,69.191Z" style="fill-rule:nonzero;"/>
    </g>
    <g transform="matrix(1,0,0,1,0,-6)">
        <path d="M76.809,68.191C76.809,67.638 76.361,67.191 75.809,67.191L68.13,67.191C67.578,67.191 67.13,67.638 67.13,68.191C67.13,68.744 67.578,69.191 68.13,69.191L75.808,69.191C76.361,69.191 76.809,68.744 76.809,68.191Z" style="fill-rule:nonzero;"/>
    </g>
    <g transform="matrix(1,0,0,1,0,-6)">
        <path d="M31.75,87.44C32.006,87.44 32.262,87.342 32.457,87.147L37.886,81.718C38.277,81.327 38.277,80.695 37.886,80.304C37.495,79.913 36.863,79.913 36.472,80.304L31.043,85.733C30.652,86.124 30.652,86.756 31.043,87.147C31.239,87.343 31.495,87.44 31.75,87.44Z" style="fill-rule:nonzero;"/>
    </g>
    <g transform="matrix(1,0,0,1,0,-6)">
        <path d="M62.113,56.078C62.308,56.273 62.564,56.371 62.82,56.371C63.076,56.371 63.332,56.273 63.527,56.078L68.956,50.649C69.347,50.258 69.347,49.626 68.956,49.235C68.565,48.844 67.933,48.844 67.542,49.235L62.113,54.664C61.723,55.055 61.723,55.688 62.113,56.078Z" style="fill-rule:nonzero;"/>
    </g>
    <g transform="matrix(1,0,0,1,0,-6)">
        <path d="M31.043,49.235C30.652,49.626 30.652,50.258 31.043,50.649L36.472,56.078C36.667,56.273 36.923,56.371 37.179,56.371C37.435,56.371 37.691,56.273 37.886,56.078C38.277,55.687 38.277,55.055 37.886,54.664L32.457,49.235C32.067,48.845 31.434,48.845 31.043,49.235Z" style="fill-rule:nonzero;"/>
    </g>
    <g transform="matrix(1,0,0,1,0,-6)">
        <path d="M67.542,87.147C67.737,87.342 67.993,87.44 68.249,87.44C68.505,87.44 68.761,87.342 68.956,87.147C69.347,86.756 69.347,86.124 68.956,85.733L63.527,80.304C63.136,79.913 62.504,79.913 62.113,80.304C61.722,80.695 61.722,81.327 62.113,81.718L67.542,87.147Z" style="fill-rule:nonzero;"/>
    </g>
    <g transform="matrix(1,0,0,1,0,-6)">
        <path d="M49,86.322L49,94C49,94.553 49.448,95 50,95C50.552,95 51,94.553 51,94L51,86.322C51,85.769 50.552,85.322 50,85.322C49.448,85.322 49,85.77 49,86.322Z" style="fill-rule:nonzero;"/>
    </g>
    <g transform="matrix(1,0,0,1,0,-6)">
        <path d="M65.223,68.098C65.223,63.967 63.595,60.102 60.638,57.213C58.946,55.559 57.886,53.479 57.547,51.242C57.785,50.976 57.934,50.63 57.934,50.245C57.934,50 57.869,49.771 57.765,49.567C58.356,49.468 58.815,48.977 58.815,48.357L58.815,37.181C58.815,31.537 56.468,28.808 51.251,28.459L51.251,6.25C51.25,5.56 50.69,5 50,5C49.31,5 48.75,5.56 48.75,6.25L48.75,28.458C43.533,28.807 41.186,31.536 41.186,37.18L41.186,48.357C41.186,48.976 41.644,49.467 42.235,49.566C42.13,49.771 42.066,49.999 42.066,50.244C42.066,50.632 42.217,50.981 42.458,51.248C42.131,53.493 41.113,55.552 39.534,57.046C36.12,60.278 34.411,64.829 34.844,69.533C35.5,76.678 41.146,82.435 48.27,83.223C48.859,83.288 49.445,83.321 50.027,83.321C53.78,83.321 57.324,81.973 60.153,79.44C63.375,76.556 65.223,72.421 65.223,68.098ZM48.081,58.966L48.081,59.422C48.081,59.927 48.461,60.327 48.946,60.395L47.934,69.092L45.818,68.613L48.081,58.966ZM49.95,60.423L50.051,60.423L51.054,69.058L50.193,68.888C50.065,68.863 49.933,68.863 49.805,68.888L48.946,69.058L49.95,60.423ZM52.063,69.093L51.053,60.396C51.539,60.328 51.919,59.928 51.919,59.423L51.919,58.967L54.182,68.614L52.063,69.093ZM51.656,52.909C51.656,53.818 50.916,54.558 49.992,54.558C49.083,54.558 48.343,53.818 48.343,52.909L48.343,51.745L51.656,51.745L51.656,52.909ZM58.818,77.951C55.98,80.492 52.312,81.657 48.489,81.236C42.306,80.552 37.405,75.554 36.835,69.35C36.459,65.261 37.944,61.306 40.909,58.499C42.765,56.741 43.978,54.35 44.403,51.744L46.344,51.744L46.344,52.908C46.344,53.675 46.584,54.386 46.991,54.974C46.974,55.017 46.945,55.052 46.934,55.099L43.64,69.139L43.64,69.144C43.64,69.145 43.639,69.146 43.639,69.147C43.627,69.202 43.638,69.255 43.635,69.309C43.631,69.387 43.616,69.466 43.63,69.54C43.64,69.6 43.673,69.651 43.694,69.708C43.718,69.772 43.732,69.84 43.768,69.898C43.801,69.95 43.852,69.988 43.893,70.033C43.938,70.082 43.974,70.138 44.029,70.177C44.084,70.217 44.154,70.235 44.217,70.263C44.274,70.288 44.323,70.326 44.386,70.34C44.388,70.34 44.389,70.34 44.391,70.341C44.392,70.341 44.393,70.342 44.394,70.342L48.088,71.178C48.161,71.195 48.234,71.202 48.309,71.202C48.374,71.202 48.439,71.196 48.503,71.183L49.999,70.887L51.497,71.183C51.633,71.209 51.775,71.207 51.912,71.177L55.609,70.341C55.61,70.341 55.611,70.34 55.612,70.34C55.614,70.34 55.615,70.34 55.617,70.339C55.68,70.324 55.729,70.287 55.786,70.262C55.85,70.234 55.919,70.216 55.974,70.176C56.028,70.137 56.063,70.082 56.108,70.034C56.151,69.988 56.202,69.95 56.236,69.896C56.269,69.844 56.28,69.781 56.303,69.723C56.327,69.661 56.362,69.604 56.373,69.538C56.383,69.479 56.369,69.416 56.369,69.355C56.368,69.285 56.38,69.216 56.364,69.145C56.364,69.143 56.363,69.142 56.362,69.141L56.362,69.137L53.067,55.1C53.056,55.054 53.027,55.019 53.01,54.976C53.416,54.388 53.656,53.677 53.656,52.91L53.656,51.746L55.603,51.746C56.039,54.333 57.284,56.732 59.241,58.643C61.809,61.153 63.223,64.51 63.223,68.098C63.223,71.853 61.617,75.444 58.818,77.951Z" style="fill-rule:nonzero;"/>
    </g>
    <g transform="matrix(1,0,0,1,0,-6)">
        <path d="M61.313,67.052C60.761,67.052 60.313,67.499 60.313,68.052C60.313,70.49 59.446,72.856 57.873,74.712C57.516,75.133 57.568,75.764 57.989,76.121C58.177,76.28 58.406,76.358 58.635,76.358C58.919,76.358 59.2,76.238 59.398,76.004C61.278,73.786 62.313,70.962 62.313,68.051C62.313,67.499 61.865,67.052 61.313,67.052Z" style="fill-rule:nonzero;"/>
    </g>
    <g transform="matrix(1,0,0,1,0,-6)">
        <path d="M55.798,76.578C54.89,77.196 53.895,77.662 52.84,77.964C52.309,78.116 52.002,78.67 52.153,79.201C52.278,79.639 52.679,79.926 53.114,79.926C53.205,79.926 53.298,79.913 53.389,79.888C54.65,79.527 55.839,78.97 56.924,78.231C57.381,77.92 57.498,77.298 57.188,76.842C56.878,76.386 56.255,76.267 55.798,76.578Z" style="fill-rule:nonzero;"/>
    </g>
</svg>
